<svg width="22" height="22" viewBox="0 0 22 22" fill="none" xmlns="http://www.w3.org/2000/svg">
<path fill-rule="evenodd" clip-rule="evenodd" d="M9.58597 1.1C9.93996 0.746476 10.4136 0.538456 10.9134 0.516981C11.4132 0.495507 11.903 0.662139 12.286 0.984002L12.414 1.101L14.314 3H17C17.5044 3.00009 17.9901 3.19077 18.3599 3.53384C18.7297 3.8769 18.9561 4.34702 18.994 4.85L19 5V7.686L20.9 9.586C21.2538 9.94004 21.462 10.4139 21.4834 10.9139C21.5049 11.414 21.3381 11.9039 21.016 12.287L20.899 12.414L18.999 14.314V17C18.9991 17.5046 18.8086 17.9906 18.4655 18.3605C18.1224 18.7305 17.6521 18.9572 17.149 18.995L17 19H14.315L12.415 20.9C12.0609 21.2538 11.5871 21.462 11.087 21.4835C10.587 21.505 10.097 21.3382 9.71397 21.016L9.58697 20.9L7.68697 19H4.99997C4.49539 19.0002 4.0094 18.8096 3.63942 18.4665C3.26944 18.1234 3.04281 17.6532 3.00497 17.15L2.99997 17V14.314L1.09997 12.414C0.746165 12.06 0.537968 11.5861 0.516492 11.0861C0.495016 10.586 0.661821 10.0961 0.98397 9.713L1.09997 9.586L2.99997 7.686V5C3.00006 4.4956 3.19074 4.00986 3.53381 3.64009C3.87687 3.27032 4.34699 3.04383 4.84997 3.006L4.99997 3H7.68597L9.58597 1.1ZM14.079 7.983L9.83497 12.227L8.06697 10.459C7.87933 10.2715 7.62489 10.1662 7.35962 10.1663C7.09435 10.1664 6.83998 10.2719 6.65247 10.4595C6.46496 10.6471 6.35967 10.9016 6.35977 11.1669C6.35986 11.4321 6.46533 11.6865 6.65297 11.874L9.05697 14.278C9.15912 14.3802 9.28041 14.4613 9.4139 14.5166C9.54739 14.5719 9.69047 14.6004 9.83497 14.6004C9.97947 14.6004 10.1225 14.5719 10.256 14.5166C10.3895 14.4613 10.5108 14.3802 10.613 14.278L15.493 9.397C15.6751 9.2084 15.7759 8.9558 15.7736 8.6936C15.7714 8.4314 15.6662 8.18059 15.4808 7.99518C15.2954 7.80977 15.0446 7.70461 14.7824 7.70233C14.5202 7.70005 14.2676 7.80084 14.079 7.983Z" fill="#13151C"/>
<path fill-rule="evenodd" clip-rule="evenodd" d="M9.58597 1.1C9.93996 0.746476 10.4136 0.538456 10.9134 0.516981C11.4132 0.495507 11.903 0.662139 12.286 0.984002L12.414 1.101L14.314 3H17C17.5044 3.00009 17.9901 3.19077 18.3599 3.53384C18.7297 3.8769 18.9561 4.34702 18.994 4.85L19 5V7.686L20.9 9.586C21.2538 9.94004 21.462 10.4139 21.4834 10.9139C21.5049 11.414 21.3381 11.9039 21.016 12.287L20.899 12.414L18.999 14.314V17C18.9991 17.5046 18.8086 17.9906 18.4655 18.3605C18.1224 18.7305 17.6521 18.9572 17.149 18.995L17 19H14.315L12.415 20.9C12.0609 21.2538 11.5871 21.462 11.087 21.4835C10.587 21.505 10.097 21.3382 9.71397 21.016L9.58697 20.9L7.68697 19H4.99997C4.49539 19.0002 4.0094 18.8096 3.63942 18.4665C3.26944 18.1234 3.04281 17.6532 3.00497 17.15L2.99997 17V14.314L1.09997 12.414C0.746165 12.06 0.537968 11.5861 0.516492 11.0861C0.495016 10.586 0.661821 10.0961 0.98397 9.713L1.09997 9.586L2.99997 7.686V5C3.00006 4.4956 3.19074 4.00986 3.53381 3.64009C3.87687 3.27032 4.34699 3.04383 4.84997 3.006L4.99997 3H7.68597L9.58597 1.1ZM14.079 7.983L9.83497 12.227L8.06697 10.459C7.87933 10.2715 7.62489 10.1662 7.35962 10.1663C7.09435 10.1664 6.83998 10.2719 6.65247 10.4595C6.46496 10.6471 6.35967 10.9016 6.35977 11.1669C6.35986 11.4321 6.46533 11.6865 6.65297 11.874L9.05697 14.278C9.15912 14.3802 9.28041 14.4613 9.4139 14.5166C9.54739 14.5719 9.69047 14.6004 9.83497 14.6004C9.97947 14.6004 10.1225 14.5719 10.256 14.5166C10.3895 14.4613 10.5108 14.3802 10.613 14.278L15.493 9.397C15.6751 9.2084 15.7759 8.9558 15.7736 8.6936C15.7714 8.4314 15.6662 8.18059 15.4808 7.99518C15.2954 7.80977 15.0446 7.70461 14.7824 7.70233C14.5202 7.70005 14.2676 7.80084 14.079 7.983Z" fill="url(#paint0_linear_58_16)"/>
<defs>
<linearGradient id="paint0_linear_58_16" x1="0.514648" y1="0.515137" x2="24.3202" y2="10.9741" gradientUnits="userSpaceOnUse">
<stop stop-color="#FFE600"/>
<stop offset="1" stop-color="#FFF38B"/>
</linearGradient>
</defs>
</svg>
