<svg width="153" height="217" viewBox="0 0 153 217" fill="none" xmlns="http://www.w3.org/2000/svg">
<path d="M137 72C143.716 66.9628 148.677 59.9401 151.181 51.9267C153.684 43.9133 153.602 35.3154 150.947 27.3509C148.293 19.3864 143.199 12.4591 136.388 7.55031C129.578 2.64149 121.395 0 113 0H41.0001C32.6048 0 24.4223 2.64149 17.6117 7.55031C10.801 12.4591 5.70757 19.3864 3.05274 27.3509C0.397918 35.3154 0.316327 43.9133 2.81953 51.9267C5.32274 59.9401 10.2838 66.9628 17.0001 72C11.9149 75.811 7.81085 80.7787 5.02792 86.4916C2.24499 92.2046 0.863256 98.4984 0.997164 104.852C1.13107 111.205 2.77677 117.435 5.79795 123.026C8.81912 128.616 13.1288 133.407 18.3701 137C12.4084 141.533 7.70235 147.512 4.69741 154.371C1.69247 161.231 0.488135 168.744 1.19844 176.2C1.90874 183.655 4.51018 190.805 8.75642 196.974C13.0027 203.143 18.7532 208.126 25.4635 211.451C32.1738 214.776 39.6218 216.334 47.1022 215.976C54.5827 215.618 61.848 213.357 68.2103 209.407C74.5726 205.456 79.8213 199.947 83.4594 193.401C87.0975 186.855 89.0046 179.489 89.0001 172V136C93.2024 139.152 97.9843 141.445 103.073 142.749C108.161 144.052 113.457 144.341 118.657 143.598C123.857 142.855 128.86 141.095 133.38 138.419C137.9 135.743 141.848 132.202 145 128C148.152 123.798 150.445 119.016 151.749 113.927C153.052 108.839 153.341 103.543 152.598 98.3431C151.855 93.1431 150.095 88.1402 147.419 83.6203C144.743 79.1003 141.202 75.1517 137 72ZM137 40C137 46.3652 134.472 52.4697 129.971 56.9706C125.47 61.4714 119.365 64 113 64H89.0001V16H113C119.365 16 125.47 18.5286 129.971 23.0294C134.472 27.5303 137 33.6348 137 40ZM17.0001 40C17.0001 33.6348 19.5286 27.5303 24.0295 23.0294C28.5304 18.5286 34.6349 16 41.0001 16H73.0001V64H41.0001C34.6349 64 28.5304 61.4714 24.0295 56.9706C19.5286 52.4697 17.0001 46.3652 17.0001 40ZM41.0001 128C34.6349 128 28.5304 125.471 24.0295 120.971C19.5286 116.47 17.0001 110.365 17.0001 104C17.0001 97.6348 19.5286 91.5303 24.0295 87.0294C28.5304 82.5286 34.6349 80 41.0001 80H73.0001V128H41.0001ZM73.0001 172C73.0001 177.538 71.3579 182.951 68.2812 187.556C65.2045 192.161 60.8315 195.749 55.7152 197.869C50.5989 199.988 44.969 200.542 39.5375 199.462C34.1061 198.382 29.117 195.715 25.2011 191.799C21.2852 187.883 18.6185 182.894 17.5381 177.463C16.4577 172.031 17.0122 166.401 19.1314 161.285C21.2507 156.169 24.8395 151.796 29.4441 148.719C34.0487 145.642 39.4622 144 45.0001 144H73.0001V172ZM113 128C108.253 128 103.613 126.592 99.6664 123.955C95.7196 121.318 92.6435 117.57 90.827 113.184C89.0105 108.799 88.5352 103.973 89.4612 99.3178C90.3873 94.6623 92.6731 90.3859 96.0295 87.0294C99.386 83.673 103.662 81.3872 108.318 80.4612C112.973 79.5351 117.799 80.0104 122.184 81.8269C126.57 83.6434 130.318 86.7195 132.955 90.6663C135.593 94.6131 137 99.2532 137 104C137 110.365 134.472 116.47 129.971 120.971C125.47 125.471 119.365 128 113 128Z" fill="black"/>
</svg>
