<svg width="20" height="20" viewBox="0 0 20 20" fill="none" xmlns="http://www.w3.org/2000/svg">
<path d="M8.59 11.41C9 11.8 9 12.44 8.59 12.83C8.2 13.22 7.56 13.22 7.17 12.83C6.23338 11.892 5.70731 10.6206 5.70731 9.29502C5.70731 7.96944 6.23338 6.69804 7.17 5.76002L10.71 2.22002C11.648 1.28339 12.9194 0.757324 14.245 0.757324C15.5706 0.757324 16.842 1.28339 17.78 2.22002C18.7166 3.15804 19.2427 4.42944 19.2427 5.75502C19.2427 7.08059 18.7166 8.35199 17.78 9.29002L16.29 10.78C16.3 9.96002 16.17 9.14002 15.89 8.36002L16.36 7.88002C16.6403 7.6027 16.8629 7.27254 17.0148 6.90865C17.1667 6.54475 17.2449 6.15434 17.2449 5.76002C17.2449 5.36569 17.1667 4.97528 17.0148 4.61139C16.8629 4.24749 16.6403 3.91733 16.36 3.64002C16.0827 3.35968 15.7525 3.13712 15.3886 2.98524C15.0247 2.83335 14.6343 2.75514 14.24 2.75514C13.8457 2.75514 13.4553 2.83335 13.0914 2.98524C12.7275 3.13712 12.3973 3.35968 12.12 3.64002L8.59 7.17002C8.30966 7.44733 8.08711 7.77749 7.93522 8.14139C7.78333 8.50528 7.70512 8.89569 7.70512 9.29002C7.70512 9.68434 7.78333 10.0747 7.93522 10.4386C8.08711 10.8025 8.30966 11.1327 8.59 11.41ZM11.41 7.17002C11.8 6.78002 12.44 6.78002 12.83 7.17002C13.7666 8.10804 14.2927 9.37944 14.2927 10.705C14.2927 12.0306 13.7666 13.302 12.83 14.24L9.29 17.78C8.35197 18.7166 7.08058 19.2427 5.755 19.2427C4.42942 19.2427 3.15803 18.7166 2.22 17.78C1.28338 16.842 0.757309 15.5706 0.757309 14.245C0.757309 12.9194 1.28338 11.648 2.22 10.71L3.71 9.22002C3.7 10.04 3.83 10.86 4.11 11.65L3.64 12.12C3.35966 12.3973 3.13711 12.7275 2.98522 13.0914C2.83333 13.4553 2.75512 13.8457 2.75512 14.24C2.75512 14.6343 2.83333 15.0247 2.98522 15.3886C3.13711 15.7525 3.35966 16.0827 3.64 16.36C3.91731 16.6404 4.24747 16.8629 4.61137 17.0148C4.97527 17.1667 5.36568 17.2449 5.76 17.2449C6.15433 17.2449 6.54473 17.1667 6.90863 17.0148C7.27253 16.8629 7.60269 16.6404 7.88 16.36L11.41 12.83C11.6903 12.5527 11.9129 12.2225 12.0648 11.8586C12.2167 11.4947 12.2949 11.1043 12.2949 10.71C12.2949 10.3157 12.2167 9.92528 12.0648 9.56139C11.9129 9.19749 11.6903 8.86733 11.41 8.59002C11.3129 8.49901 11.2355 8.38904 11.1825 8.26692C11.1296 8.1448 11.1023 8.01311 11.1023 7.88002C11.1023 7.74692 11.1296 7.61523 11.1825 7.49311C11.2355 7.37099 11.3129 7.26102 11.41 7.17002Z" fill="#13151C"/>
</svg>
