<svg width="32" height="20" viewBox="0 0 32 20" fill="none" xmlns="http://www.w3.org/2000/svg">
<path d="M0.873047 19V0.556641H14.1074V3.67383H4.90625V8.10352H13.2734V11.2207H4.90625V15.8828H14.668V19H0.873047ZM21.0117 9.68945C21.0117 11.7402 21.3307 13.3216 21.9688 14.4336C22.6068 15.5456 23.5592 16.1016 24.8262 16.1016C26.3027 16.1016 27.3965 14.9896 28.1074 12.7656L31.8398 13.4766C30.6276 17.3411 28.276 19.2734 24.7852 19.2734C22.224 19.2734 20.2689 18.4622 18.9199 16.8398C17.5801 15.2083 16.9102 12.8249 16.9102 9.68945C16.9102 3.40951 19.4987 0.269531 24.6758 0.269531C26.3711 0.269531 27.7884 0.716146 28.9277 1.60938C30.0762 2.5026 30.9193 3.82878 31.457 5.58789L27.7383 6.49023C27.474 5.52409 27.0775 4.77669 26.5488 4.24805C26.0202 3.71029 25.4141 3.44141 24.7305 3.44141C22.2513 3.44141 21.0117 5.52409 21.0117 9.68945Z" fill="url(#paint0_linear_3_3)"/>
<defs>
<linearGradient id="paint0_linear_3_3" x1="-1" y1="-4" x2="36.808" y2="13.6488" gradientUnits="userSpaceOnUse">
<stop stop-color="#FFE600"/>
<stop offset="1" stop-color="#FFF38B"/>
</linearGradient>
</defs>
</svg>
