<svg width="60" height="60" viewBox="0 0 60 60" fill="none" xmlns="http://www.w3.org/2000/svg">
<path d="M56.5 60C49.3333 60 42.3478 58.4022 35.5433 55.2067C28.7389 52.0111 22.7111 47.7889 17.46 42.54C12.2089 37.2911 7.98667 31.2633 4.79333 24.4567C1.6 17.65 0.00222222 10.6644 0 3.5C0 2.5 0.333333 1.66667 1 1C1.66667 0.333333 2.5 0 3.5 0H17C17.7778 0 18.4722 0.25 19.0833 0.75C19.6944 1.25 20.0556 1.88889 20.1667 2.66667L22.3333 14.3333C22.4444 15.1111 22.43 15.82 22.29 16.46C22.15 17.1 21.8311 17.6689 21.3333 18.1667L13.3333 26.3333C15.6667 30.3333 18.5833 34.0833 22.0833 37.5833C25.5833 41.0833 29.4444 44.1111 33.6667 46.6667L41.5 38.8333C42 38.3333 42.6533 37.9589 43.46 37.71C44.2667 37.4611 45.0578 37.3911 45.8333 37.5L57.3333 39.8333C58.1111 40 58.75 40.3756 59.25 40.96C59.75 41.5444 60 42.2244 60 43V56.5C60 57.5 59.6667 58.3333 59 59C58.3333 59.6667 57.5 60 56.5 60Z" fill="black"/>
<path d="M56.5 60C49.3333 60 42.3478 58.4022 35.5433 55.2067C28.7389 52.0111 22.7111 47.7889 17.46 42.54C12.2089 37.2911 7.98667 31.2633 4.79333 24.4567C1.6 17.65 0.00222222 10.6644 0 3.5C0 2.5 0.333333 1.66667 1 1C1.66667 0.333333 2.5 0 3.5 0H17C17.7778 0 18.4722 0.25 19.0833 0.75C19.6944 1.25 20.0556 1.88889 20.1667 2.66667L22.3333 14.3333C22.4444 15.1111 22.43 15.82 22.29 16.46C22.15 17.1 21.8311 17.6689 21.3333 18.1667L13.3333 26.3333C15.6667 30.3333 18.5833 34.0833 22.0833 37.5833C25.5833 41.0833 29.4444 44.1111 33.6667 46.6667L41.5 38.8333C42 38.3333 42.6533 37.9589 43.46 37.71C44.2667 37.4611 45.0578 37.3911 45.8333 37.5L57.3333 39.8333C58.1111 40 58.75 40.3756 59.25 40.96C59.75 41.5444 60 42.2244 60 43V56.5C60 57.5 59.6667 58.3333 59 59C58.3333 59.6667 57.5 60 56.5 60Z" fill="#F6F6EF"/>
</svg>
