<svg width="40" height="40" viewBox="0 0 40 40" fill="none" xmlns="http://www.w3.org/2000/svg">
<path d="M22.5447 0.164688C11.5914 -1.24031 1.56972 6.49969 0.164717 17.4547C-1.24028 28.408 6.49805 38.428 17.4531 39.8347C28.4081 41.2397 38.4314 33.4997 39.833 22.5447C41.2397 11.5914 33.5014 1.57135 22.5447 0.164688ZM26.663 12.6397C26.2919 12.6446 25.9373 12.7941 25.6747 13.0564L18.253 20.478L17.7414 19.9664L16.6697 18.8947C23.9847 11.6014 25.3031 11.5314 26.663 12.6397ZM18.5581 20.7414L25.958 13.3414C26.055 13.2396 26.1718 13.1588 26.3011 13.1037C26.4304 13.0486 26.5696 13.0205 26.7101 13.0211C26.8507 13.0217 26.9896 13.0509 27.1185 13.107C27.2474 13.1632 27.3634 13.245 27.4596 13.3475C27.5557 13.45 27.63 13.5711 27.6777 13.7032C27.7255 13.8354 27.7458 13.976 27.7374 14.1163C27.729 14.2566 27.692 14.3937 27.6288 14.5192C27.5656 14.6448 27.4774 14.7561 27.3697 14.8464L19.538 21.7214L18.5581 20.7414ZM19.108 21.898L17.2747 22.2947C17.2528 22.2996 17.2299 22.297 17.2096 22.2874C17.1894 22.2777 17.173 22.2615 17.163 22.2414C17.1519 22.2221 17.1475 22.1997 17.1505 22.1777C17.1535 22.1556 17.1638 22.1352 17.1797 22.1197L18.2547 21.0447L19.108 21.898ZM14.4364 21.133L16.3897 19.1797L17.8547 20.643L14.5564 21.353C14.5289 21.3602 14.4998 21.3576 14.474 21.3457C14.4482 21.3339 14.4272 21.3135 14.4147 21.288C14.3992 21.2639 14.3928 21.2349 14.3968 21.2065C14.4008 21.1781 14.4148 21.152 14.4364 21.133ZM8.35972 31.2297C8.34306 31.2282 8.32685 31.2235 8.31204 31.2157C8.29722 31.208 8.28409 31.1973 8.27339 31.1845C8.2627 31.1716 8.25467 31.1568 8.24974 31.1408C8.24482 31.1248 8.24311 31.108 8.24472 31.0914C8.24788 31.0624 8.26081 31.0353 8.28138 31.0147H8.28472L9.86138 29.438L11.8981 31.4747L8.35972 31.2297ZM12.4014 29.1364C12.3258 29.1754 12.2655 29.2387 12.2302 29.316C12.1948 29.3934 12.1865 29.4803 12.2064 29.563L12.5447 31.0047C12.5556 31.0491 12.5516 31.0959 12.5333 31.1378C12.515 31.1797 12.4834 31.2145 12.4434 31.2367C12.4034 31.2588 12.3572 31.2672 12.312 31.2606C12.2667 31.2539 12.2249 31.2325 12.1931 31.1997H12.1881L10.6314 29.643L10.1414 29.1514L16.4114 22.888L19.4447 22.233L20.9014 23.6897C18.8097 25.5264 15.9497 27.358 12.4014 29.1364ZM21.1997 23.423H21.1964L19.798 22.0247L27.6297 15.1497C27.7022 15.0853 27.7685 15.0145 27.8281 14.938C27.5814 17.1797 24.4464 20.3464 21.1997 23.423ZM27.2947 12.6564L27.2897 12.653C26.7387 12.0994 26.4222 11.3546 26.406 10.5737C26.3899 9.79267 26.6753 9.03551 27.203 8.45954C27.7307 7.88357 28.4601 7.53311 29.2395 7.48099C30.0189 7.42887 30.7884 7.67911 31.3881 8.17969L28.7047 10.868C28.6861 10.8865 28.6714 10.9084 28.6613 10.9326C28.6512 10.9567 28.646 10.9827 28.646 11.0089C28.646 11.035 28.6512 11.061 28.6613 11.0851C28.6714 11.1093 28.6861 11.1313 28.7047 11.1497L30.783 13.228C30.215 13.51 29.5727 13.6065 28.9468 13.504C28.3209 13.4014 27.7431 13.1049 27.2947 12.6564ZM31.5914 12.6564C31.4535 12.7925 31.3022 12.9142 31.1397 13.0197L29.1264 11.008L31.6814 8.45302C32.7831 9.65302 32.743 11.5064 31.5914 12.6564ZM31.4247 10.083C31.3846 10.1121 31.3546 10.1529 31.3388 10.1998C31.323 10.2466 31.3221 10.2973 31.3364 10.3447C31.3957 10.4649 31.419 10.5997 31.4033 10.7328C31.3876 10.8659 31.3337 10.9916 31.2481 11.0947C31.229 11.1187 31.2148 11.1463 31.2064 11.1759C31.198 11.2054 31.1955 11.2363 31.199 11.2668C31.2026 11.2973 31.2122 11.3268 31.2271 11.3536C31.2421 11.3804 31.2623 11.404 31.2864 11.423C31.3264 11.4544 31.3755 11.4719 31.4264 11.473C31.4601 11.4727 31.4934 11.4651 31.5239 11.4507C31.5544 11.4363 31.5814 11.4155 31.6031 11.3897C31.7462 11.2177 31.8362 11.0077 31.8619 10.7854C31.8877 10.5632 31.8481 10.3382 31.748 10.138C31.7306 10.113 31.7083 10.0917 31.6826 10.0753C31.6568 10.0589 31.628 10.0479 31.5979 10.0428C31.5678 10.0376 31.537 10.0386 31.5073 10.0455C31.4775 10.0524 31.4495 10.0652 31.4247 10.083Z" fill="#13151C"/>
</svg>
